<svg width="37" height="36" viewBox="0 0 37 36" fill="none" xmlns="http://www.w3.org/2000/svg">
<mask id="mask0_113_30" style="mask-type:alpha" maskUnits="userSpaceOnUse" x="0" y="0" width="37" height="36">
<rect width="37" height="36" fill="#D9D9D9"/>
</mask>
<g mask="url(#mask0_113_30)">
<path d="M34.9709 9.64166C28.885 9.01833 22.7434 8.70666 16.6296 8.70666C13.0005 8.70666 9.3713 8.90498 5.77005 9.27332L2.02922 9.64166M12.1071 7.77165L12.498 5.33499C12.7771 3.57832 13.0005 2.24666 16.0992 2.24666H20.9009C23.9996 2.24666 24.2229 3.63499 24.5021 5.33499L24.8929 7.74334M31.0346 9.86834L29.8342 28.5683C29.6388 31.4866 29.4713 33.7533 24.3626 33.7533H12.6096C7.50087 33.7533 7.33335 31.4866 7.13794 28.5683L5.93754 9.86834M10.125 46.3333H26.875C40.8334 46.3333 46.4167 40.6667 46.4167 26.5V9.49999C46.4167 -4.66668 40.8334 -10.3333 26.875 -10.3333H10.125C-3.83329 -10.3333 -9.41663 -4.66668 -9.41663 9.49999V26.5C-9.41663 40.6667 -3.83329 46.3333 10.125 46.3333Z" stroke="white" stroke-width="3" stroke-linecap="round" stroke-linejoin="round"/>
</g>
</svg>
