<svg width="42" height="42" viewBox="0 0 42 42" fill="none" xmlns="http://www.w3.org/2000/svg">
<mask id="mask0_113_29" style="mask-type:alpha" maskUnits="userSpaceOnUse" x="0" y="0" width="42" height="42">
<rect width="42" height="42" fill="#D9D9D9"/>
</mask>
<g mask="url(#mask0_113_29)">
<path d="M21.4807 11.3319C22.7245 15.7702 26.2016 19.2756 30.6682 20.5194M32.3078 -7.26926H9.69237C-1.61532 -7.26926 -7.26917 -1.61541 -7.26917 9.69228V46.4423C-7.26917 47.9971 -5.99705 49.2692 -4.44224 49.2692H32.3078C43.6154 49.2692 49.2693 43.6154 49.2693 32.3077V9.69228C49.2693 -1.61541 43.6154 -7.26926 32.3078 -7.26926ZM23.5726 9.23997L8.90085 23.9117C8.33546 24.4771 7.79837 25.5796 7.68529 26.3711L6.89376 31.9684C6.61106 34.0038 8.02451 35.4173 10.0599 35.1346L15.6571 34.3431C16.4487 34.23 17.5513 33.6929 18.1166 33.1275L32.7884 18.4557C35.3043 15.9398 36.5199 12.9998 32.7884 9.26824C29.0568 5.50843 26.1168 6.69574 23.5726 9.23997Z" stroke="white" stroke-width="3" stroke-miterlimit="10" stroke-linecap="round" stroke-linejoin="round"/>
</g>
</svg>
